# xmcd CD database file generated by LOLA_Freedb v0.9beta0
# 
# Track frame offsets:
#      150
#      14077
#      28366
#      42869
#      57332
#      72992
#      85513
#      100319
#      114486
#      131918
#      139437
#      154242
# 
# Disc length: 2224 seconds
# 
# Revision: 0 
# Processed by: cddbd v1.5.1PL2 Copyright (c) Steve Scherf et al.
# Submitted via: LOLA_Freedb v0.9beta0
# 
DISCID=b008ae0c
DTITLE=Alexandra - Stimme der Sehnsucht CD 2
DYEAR=1900
DGENRE=
TTITLE0=Zigeunerjunge
TTITLE1=Tanz, alter Tanzb‰r
TTITLE2=Am groﬂen Strom
TTITLE3=Was ist das Ziel
TTITLE4=Wind, Wind
TTITLE5=Warum ?
TTITLE6=Erstes Morgenrot
TTITLE7=Schwarze Balalaika
TTITLE8=Der Traum vom Fliegen
TTITLE9=Dunkles Wolkenmeer
TTITLE10=The guns and the drums
TTITLE11=Mein Kind, schlaf ein
EXTD=
EXTT0=
EXTT1=
EXTT2=
EXTT3=
EXTT4=
EXTT5=
EXTT6=
EXTT7=
EXTT8=
EXTT9=
EXTT10=
EXTT11=
PLAYORDER=
